<svg xmlns="http://www.w3.org/2000/svg" viewBox="0 0 234.135 46">
    <!-- <defs>
        <style>
            .cls-1{fill:#26a2be}.cls-2{fill:#9e1260}
        </style>
    </defs> -->

    <linearGradient id="b" x1="275.311" x2="276.311" y1="161.247" y2="161.247" gradientTransform="rotate(-131.695 18623.181 25999.292) scale(182.211)" gradientUnits="userSpaceOnUse">
        <stop offset="0" stop-color="#67bed2">
            <animate attributeName="stop-color" dur="4s" repeatCount="indefinite" values="#67bed2; #26a2be; #1b7185; #26a2be; #67bed2"></animate>
        </stop>
    </linearGradient>
    <linearGradient id="p" x1="275.311" x2="276.311" y1="161.247" y2="161.247" gradientTransform="rotate(-131.695 18623.181 25999.292) scale(182.211)" gradientUnits="userSpaceOnUse">
        <stop offset="0" stop-color="#7e0e4d">
            <animate attributeName="stop-color" dur="4s" repeatCount="indefinite" values="#7e0e4d; #9e1260; #b14180; #9e1260; #7e0e4d"></animate>
        </stop>
    </linearGradient>

    <g>
        <path fill="url(#b)" d="M385.037 331.1h6.9v3.165a8.987 8.987 0 0 1 7.573-3.956c2.148 0 5.314.622 7.235 3 1.7 2.091 1.922 4.521 1.922 6.895v15.371h-6.895V342.23c0-1.357-.057-3.5-1.3-4.8a4.417 4.417 0 0 0-3.222-1.243 4.7 4.7 0 0 0-4.239 2.148 8.42 8.42 0 0 0-1.074 4.747v12.489h-6.9z" transform="translate(-301.808 -322.734)"/>
        <path fill="url(#b)" d="M508.157 330.306c-3.441 0-5.939 2.7-7.122 4.49v-3.7h-6.9v24.47h6.9v-11.954c0-2.169.057-3.432 1.074-5.015a4.528 4.528 0 0 1 3.757-2.1 3.757 3.757 0 0 1 2.9 1.133l6-4.4a7.892 7.892 0 0 0-6.609-2.924z" transform="translate(-308.131 -322.734)"/>
        <path fill="url(#b)" d="M539.376 333.753c-2.09-1.922-5.256-3.447-9.892-3.447s-7.8 1.526-9.89 3.447a13.181 13.181 0 0 0 0 19.157c2.091 1.921 5.256 3.447 9.89 3.447s7.8-1.526 9.892-3.447a13.181 13.181 0 0 0 0-19.157zm-9.892 16.5a6.923 6.923 0 1 1 6.9-6.895 6.815 6.815 0 0 1-6.899 6.897z" transform="translate(-309.367 -322.734)"/>
        <path fill="url(#p)" d="M0 0H6.896V32.833H0z" transform="translate(0 .047)"/>
        <path fill="url(#p)" d="M419.677 333.248v-5.479h4.265v-5.5h-6.9v5.5h-4.258v5.518h4.258V355.1h6.9v-21.852z" transform="translate(-303.417 -322.267)"/>
        <path fill="url(#b)" d="M479.77 331.1v3.165a8.612 8.612 0 0 0-7.688-3.956c-7.63 0-12.207 6.1-12.207 13 0 7.177 4.917 13.055 12.378 13.055a8.635 8.635 0 0 0 7.518-4.069v3.673c0 2.154-.871 6.89-6.127 6.89-3.769 0-4.976-1.428-6.317-3.178l-5 3.67c2.043 2.974 5.779 5.388 11.345 5.388a13.291 13.291 0 0 0 10.231-4.3c2.826-3.277 2.769-6.724 2.769-9.776V331.1zm-6.17 19.155a6.924 6.924 0 1 1 6.783-6.951 6.7 6.7 0 0 1-6.783 6.951z" transform="translate(-306.145 -322.734)"/>
        <g fill="url(#p)" transform="translate(7.318 6.963)">
            <path d="M319.619 352.852l-5.2 3.8-9.966-13.624 9.888-13.368 5.1 3.754-7.095 9.614z" transform="translate(-304.457 -329.659)"/>
        </g>
        <path fill="url(#b)" d="M378.331 344.1c0-2.656-.342-6.5-2.939-9.607-1.7-2.033-4.217-4.011-9.018-4.011a12.536 12.536 0 0 0-9.212 3.446 13.029 13.029 0 0 0-3.73 9.607 12.327 12.327 0 0 0 3.844 9.551 12.808 12.808 0 0 0 9.382 3.446c5.224 0 8.235-2.128 10.053-4.3l-4.661-3.42a6.892 6.892 0 0 1-5.313 2.231 5.807 5.807 0 0 1-4.993-2.257 7.214 7.214 0 0 1-1.187-4.124h17.779zm-17.552-3.843a5.657 5.657 0 0 1 5.658-4.917c2.826 0 5.029 1.582 5.594 4.917z" transform="translate(-299.977 -322.744)"/>
        <path fill="url(#b)" d="M348.4 344.1c0-2.656-.342-6.5-2.939-9.607-1.7-2.033-4.218-4.011-9.018-4.011a12.536 12.536 0 0 0-9.212 3.446 13.028 13.028 0 0 0-3.731 9.607 12.327 12.327 0 0 0 3.844 9.551 12.809 12.809 0 0 0 9.382 3.446c5.224 0 8.235-2.128 10.053-4.3l-4.661-3.42a6.892 6.892 0 0 1-5.313 2.231 5.807 5.807 0 0 1-4.993-2.257 7.214 7.214 0 0 1-1.187-4.124H348.4zm-17.552-3.843a5.657 5.657 0 0 1 5.658-4.917c2.826 0 5.029 1.582 5.594 4.917z" transform="translate(-298.242 -322.744)"/>
        <path fill="url(#b)" d="M454.331 344.1c0-2.656-.342-6.5-2.939-9.607-1.7-2.033-4.217-4.011-9.018-4.011a12.536 12.536 0 0 0-9.212 3.446 13.028 13.028 0 0 0-3.731 9.607 12.327 12.327 0 0 0 3.844 9.551 12.808 12.808 0 0 0 9.382 3.446c5.224 0 8.235-2.128 10.053-4.3l-4.661-3.42a6.892 6.892 0 0 1-5.313 2.231 5.807 5.807 0 0 1-4.993-2.257 7.214 7.214 0 0 1-1.187-4.124h17.779zm-17.552-3.843a5.657 5.657 0 0 1 5.658-4.917c2.826 0 5.029 1.582 5.594 4.917z" transform="translate(-304.381 -322.744)"/>
    </g>
</svg>
