<svg xmlns="http://www.w3.org/2000/svg" width="30" height="30" viewBox="0 0 30 30">
    <defs>
        <clipPath id="clip-path">
            <path id="Rectangle_68" d="M0 0H30V30H0z" class="cls-1" transform="translate(1248 5811)"/>
        </clipPath>
        <style>
            .cls-1{fill:#fff}
        </style>
    </defs>
    <g id="Mask_Group_6" clip-path="url(#clip-path)" transform="translate(-1248 -5811)">
        <path id="facebook" d="M30.484 15.484A15 15 0 1 0 13.14 30.3V19.82H9.33v-4.336h3.81v-3.3c0-3.759 2.238-5.835 5.666-5.835a23.085 23.085 0 0 1 3.358.293v3.69h-1.892a2.168 2.168 0 0 0-2.444 2.343v2.816h4.16l-.665 4.336h-3.495V30.3a15.005 15.005 0 0 0 12.656-14.816z" class="cls-1" transform="translate(1247.516 5810.607)"/>
    </g>
</svg>
