<svg xmlns="http://www.w3.org/2000/svg" width="36" height="36" viewBox="0 0 36 36">
    <g transform="translate(-252 -1168)">
        <path id="icons8-map" d="M25.448 2.483A5.6 5.6 0 0 0 20.09 6.5l-6.4-2.56a1.86 1.86 0 0 0-1.28-.039L2.514 7.2a1.862 1.862 0 0 0-1.273 1.764v24.311a1.242 1.242 0 0 0 1.634 1.181l9.924-3.31a.616.616 0 0 1 .427.015l11.536 4.614a1.856 1.856 0 0 0 .693.133 1.809 1.809 0 0 0 .674-.129l9.924-3.86a1.846 1.846 0 0 0 1.188-1.734V5.872a1.239 1.239 0 0 0-1.69-1.154l-4.73 1.838a5.594 5.594 0 0 0-5.373-4.073zm0 1.241A4.345 4.345 0 1 1 21.1 8.069a4.35 4.35 0 0 1 4.348-4.345zm0 1.241a.621.621 0 0 0 0 1.241 1.867 1.867 0 0 1 1.2.434.62.62 0 0 0 .4.145.629.629 0 0 0 .478-.223.622.622 0 0 0-.078-.875 3.116 3.116 0 0 0-2-.721zm-12.436.082a.542.542 0 0 1 .213.044l6.653 2.66c-.007.1-.017.211-.017.318A5.594 5.594 0 0 0 20.08 9.6l-6.6-2.643a1.231 1.231 0 0 0-.853-.024l-8.054 2.68a1.244 1.244 0 0 0-.849 1.181v18.553a1.239 1.239 0 0 0 1.634 1.176l7.657-2.553 11.977 4.791a1.208 1.208 0 0 0 .461.09 1.248 1.248 0 0 0 .449-.085l8.064-3.137a1.231 1.231 0 0 0 .793-1.157V9.941a1.239 1.239 0 0 0-1.69-1.154l-2.269.88a5.609 5.609 0 0 0 .235-1.6c0-.087-.01-.175-.012-.262L36 5.872v24.314a.623.623 0 0 1-.4.577l-9.921 3.86a.617.617 0 0 1-.456 0l-11.536-4.617a1.834 1.834 0 0 0-.687-.133 1.884 1.884 0 0 0-.589.095l-9.928 3.307V8.964a.62.62 0 0 1 .424-.589l9.892-3.3a.631.631 0 0 1 .214-.027zm0 3.06l7.846 3.14a5.582 5.582 0 0 0 3.967 2.371v10.589a.621.621 0 1 0 1.241 0V13.619a5.6 5.6 0 0 0 3.918-2.3l3.53-1.375v18.528l-8.067 3.137-11.971-4.791a1.256 1.256 0 0 0-.461-.09 1.2 1.2 0 0 0-.393.065l-7.656 2.554V10.792zM6.828 19.862a.619.619 0 0 0-.621.621v1.241a.621.621 0 0 0 1.241 0v-1.241a.619.619 0 0 0-.62-.621zm3.1 0a.619.619 0 0 0-.621.621v1.241a.621.621 0 1 0 1.241 0v-1.241a.619.619 0 0 0-.617-.621zm3.1 0a.619.619 0 0 0-.621.621v1.241a.621.621 0 0 0 1.241 0v-1.241a.619.619 0 0 0-.614-.621zm3.1 0a.619.619 0 0 0-.621.621v1.241a.621.621 0 0 0 1.241 0v-1.241a.619.619 0 0 0-.61-.621zm3.1 0a.619.619 0 0 0-.621.621v1.241a.621.621 0 1 0 1.241 0v-1.241a.619.619 0 0 0-.607-.621zm3.1 0a.619.619 0 0 0-.621.621v1.241a.621.621 0 0 0 1.241 0v-1.241a.619.619 0 0 0-.603-.621zm6.207 0a.619.619 0 0 0-.621.621v1.241a.621.621 0 0 0 1.241 0v-1.241a.619.619 0 0 0-.603-.621zm3.1 0a.619.619 0 0 0-.621.621v1.241a.621.621 0 0 0 1.241 0v-1.241a.619.619 0 0 0-.6-.621z" transform="translate(250.759 1166.805)"/>
    </g>
</svg>
