<svg xmlns="http://www.w3.org/2000/svg" width="36" height="36" viewBox="0 0 36 36">
    <g transform="translate(-252 -1114)">
        <path d="M30.209 3.113a11.748 11.748 0 0 0-7.827 3.313c-2.275 2.274-2.229 4.674-1.376 7.552l-3.437 3.437-7.25-7.25c0-.041 0-.085-.01-.127L9.963 8.39a1.258 1.258 0 0 0-.54-.79l-4.4-2.86a1.26 1.26 0 0 0-1.564.166l-1.05 1.05a1.253 1.253 0 0 0-.163 1.559l2.811 4.348a1.236 1.236 0 0 0 .767.538l1.705.392a1.335 1.335 0 0 0 .139.012l7.252 7.254-4.233 4.241A6.8 6.8 0 0 0 4.546 27a6.863 6.863 0 0 0 5.1 10.967c.129.007.258.01.387.01a6.85 6.85 0 0 0 6.823-7.51l2.744-2.735a3.048 3.048 0 0 0 .755 1.286l8.375 8.38a3.132 3.132 0 0 0 4.412 0l1.758-1.766a3.121 3.121 0 0 0 0-4.409l-8.38-8.38a3.07 3.07 0 0 0-1.284-.753l1.937-1.939c2.875.85 5.279.9 7.554-1.376s4.027-6.514 3.03-9.681a.62.62 0 0 0-.446-.419.627.627 0 0 0-.59.166l-3.89 3.89a.612.612 0 0 1-.6.161l-.682-.183a4.378 4.378 0 0 1-3.089-3.086l-.18-.683a.619.619 0 0 1 .163-.6l3.9-3.9a.623.623 0 0 0-.256-1.04 6.482 6.482 0 0 0-1.878-.287zm-.054 1.252c.161 0 .319.007.475.019l-3.069 3.07a1.872 1.872 0 0 0-.482 1.808l.183.685a5.629 5.629 0 0 0 3.968 3.968l.682.183a1.868 1.868 0 0 0 1.805-.485l3.06-3.06a10.487 10.487 0 0 1-2.926 7.337c-1.944 1.944-3.915 1.822-6.663.96a.625.625 0 0 0-.626.153l-10.8 10.8a.617.617 0 0 0-.175.529 5.61 5.61 0 0 1-9.96 4.268 5.643 5.643 0 0 1-.088-6.838 5.571 5.571 0 0 1 4.473-2.246 6.145 6.145 0 0 1 .814.056.619.619 0 0 0 .526-.175l10.8-10.8a.624.624 0 0 0 .156-.631c-.862-2.745-.984-4.714.96-6.658a10.734 10.734 0 0 1 6.888-2.943zM4.341 5.788l4.4 2.857.346 1.649-1.282 1.282-1.7-.39-2.814-4.348zm5.425 5.591l6.921 6.921-.882.882-6.918-6.921.436-.434zm14.821.156a.624.624 0 0 0-.441 1.065l4.412 4.409a.623.623 0 1 0 .879-.882l-4.407-4.41a.629.629 0 0 0-.443-.182zm-1.764 5.291a.624.624 0 0 0-.441 1.065l.884.882a.624.624 0 0 0 .882-.882l-.882-.882a.629.629 0 0 0-.443-.183zm-2.2 2.2a.625.625 0 0 0-.438 1.065l.879.884a.626.626 0 0 0 .884 0 .626.626 0 0 0 0-.884l-.884-.879a.612.612 0 0 0-.445-.182zm-2.2 2.2a.625.625 0 0 0-.441 1.067l.879.879a.624.624 0 0 0 .884-.879l-.884-.884a.618.618 0 0 0-.445-.174zm6.119 1.973a1.814 1.814 0 0 1 1.108.519l8.372 8.382a1.87 1.87 0 0 1 0 2.646l-1.766 1.764a1.867 1.867 0 0 1-2.643 0l-8.38-8.38a1.851 1.851 0 0 1-.514-1.523l3.4-3.4a2.008 2.008 0 0 1 .417.001zm-8.324.234a.622.622 0 0 0-.443 1.065l.884.879a.622.622 0 1 0 .879-.879l-.879-.884a.625.625 0 0 0-.447-.172zM14 25.647a.628.628 0 0 0-.441.183.62.62 0 0 0 0 .879l.882.884a.624.624 0 0 0 .882-.884l-.882-.879a.624.624 0 0 0-.441-.183zm11.639.1a.625.625 0 0 0-.443 1.067l6.175 6.173a.624.624 0 0 0 .882-.882L26.08 25.93a.628.628 0 0 0-.436-.184zM23.88 27.51a.625.625 0 0 0-.443 1.067l6.175 6.173a.623.623 0 1 0 .879-.882l-6.17-6.175a.628.628 0 0 0-.441-.183zm-13.089.212a.609.609 0 0 0-.161.022l-2.784.745a.629.629 0 0 0-.441.441l-.743 2.782a.624.624 0 0 0 .158.6l2.037 2.038a.621.621 0 0 0 .441.183.73.73 0 0 0 .163-.019l2.782-.748a.621.621 0 0 0 .441-.441l.745-2.78a.628.628 0 0 0-.161-.6L11.233 27.9a.643.643 0 0 0-.441-.178zM10.6 29.04l1.527 1.527-.558 2.088-2.088.56-1.522-1.527.557-2.088z" transform="translate(249.954 1111.291)"/>
    </g>
</svg>
