<svg xmlns="http://www.w3.org/2000/svg" width="36" height="36" viewBox="0 0 36 36">
    <g transform="translate(-252 -1222)">
        <path d="M19.241 1.241a18 18 0 1 0 18 18 18.019 18.019 0 0 0-18-18zm0 1.241A16.759 16.759 0 1 1 2.483 19.241 16.779 16.779 0 0 1 19.241 2.483zm0 2.483a14.276 14.276 0 1 0 8.813 3.045.621.621 0 0 0-.766.977 13 13 0 1 1-6.146-2.643.621.621 0 0 0 .182-1.229 14.524 14.524 0 0 0-2.083-.149zm4.675.834A.62.62 0 0 0 23.734 7a12.9 12.9 0 0 1 1.433.628.633.633 0 0 0 .284.068.621.621 0 0 0 .281-1.173 14.087 14.087 0 0 0-1.571-.689.608.608 0 0 0-.245-.034zM19.241 8.69a.622.622 0 0 0-.621.621v1.241a.621.621 0 0 0 1.241 0V9.31a.622.622 0 0 0-.62-.62zm3.712.725a.618.618 0 0 0-.567.388l-.466 1.149a.622.622 0 0 0 .344.81.649.649 0 0 0 .233.044.618.618 0 0 0 .575-.388l.466-1.152a.621.621 0 0 0-.344-.807.6.6 0 0 0-.241-.044zm3.176 2.061a.632.632 0 0 0-.436.192l-.863.892a.621.621 0 0 0 .017.878.611.611 0 0 0 .429.175.622.622 0 0 0 .446-.189l.863-.892a.621.621 0 0 0-.456-1.055zm-6.888.938a.622.622 0 0 0-.621.621v5.138a1.234 1.234 0 0 0 .938 2.265l3.9 3.9a.621.621 0 0 0 .878-.878l-3.9-3.9a1.209 1.209 0 0 0-.575-1.387v-5.139a.622.622 0 0 0-.62-.62zm9.059 2.167a.65.65 0 0 0-.24.053l-1.135.5a.621.621 0 1 0 .5 1.135l1.135-.5a.621.621 0 0 0-.264-1.188zm-18.99 4.04a.621.621 0 1 0 0 1.241h1.241a.621.621 0 0 0 0-1.241zm18.621 0a.621.621 0 0 0 0 1.241h1.241a.621.621 0 0 0 0-1.241zm-.643 3.256a.62.62 0 0 0-.223 1.2l1.152.466a.6.6 0 0 0 .23.046.621.621 0 0 0 .233-1.2l-1.149-.466a.612.612 0 0 0-.242-.046zm-1.806 2.779a.632.632 0 0 0-.436.192.919.919 0 0 0-.036 1.04l.815.815a.62.62 0 0 0 .878 0 .877.877 0 0 0 .053-.078.74.74 0 0 0 .078-.053.621.621 0 0 0-.017-.878l-.892-.863a.623.623 0 0 0-.443-.176zm-6.241 2.654a.622.622 0 0 0-.621.621v1.241a.621.621 0 0 0 1.241 0v-1.241a.622.622 0 0 0-.62-.621z" transform="translate(250.759 1220.758)"/>
    </g>
</svg>
