<svg xmlns="http://www.w3.org/2000/svg" width="36" height="33" viewBox="-2 0 34 33" fill="white">
    <path d="M27.857 2.143H2.136A2.152 2.152 0 0 0 0 4.306V29.98a2.152 2.152 0 0 0 2.136 2.163h25.721A2.158 2.158 0 0 0 30 29.98V4.306a2.158 2.158 0 0 0-2.143-2.163zM9.067 27.857H4.621V13.54h4.453v14.317zM6.844 11.585a2.578 2.578 0 1 1 2.578-2.578 2.579 2.579 0 0 1-2.578 2.578zm18.89 16.272h-4.446v-6.964c0-1.661-.033-3.8-2.31-3.8-2.317 0-2.672 1.808-2.672 3.676v7.085h-4.447V13.54h4.266v1.96h.06a4.683 4.683 0 0 1 4.212-2.31c4.5 0 5.337 2.967 5.337 6.824z"/>
</svg>
