<svg xmlns="http://www.w3.org/2000/svg" width="1920" height="377" viewBox="0 0 1920 377">
    <defs>
        <style>
            .cls-2{fill:#fff}
        </style>
    </defs>
    <g id="фон" opacity="0.5">
        <path id="Path_1" d="M385.037 336.79h56.549v25.938c10.66-14.822 29.664-32.422 62.1-32.422 17.613 0 43.577 5.095 59.329 24.548 13.913 17.138 15.759 37.054 15.759 56.507v125.974h-56.539v-109.3c0-11.124-.471-28.717-10.66-39.369-8.807-9.263-20.866-10.19-26.42-10.19-14.833 0-26.42 5.1-34.763 17.6-8.343 12.969-8.806 27.328-8.806 38.906v102.353h-56.549z" class="cls-2" transform="translate(297.47 -268.246)"/>
        <path id="Path_2" d="M609.09 330.306c-28.22 0-48.7 22.124-58.4 36.8V336.79h-56.551v200.545h56.548v-97.976c0-17.778.464-28.13 8.807-41.1 8.343-12.505 20.681-17.207 30.808-17.207 10.946 0 17.868 3.382 23.771 9.287l49.216-36.088c-14.438-17.661-32.376-23.945-54.199-23.945z" class="cls-2" transform="translate(1031.197 -268.246)"/>
        <path id="Path_3" d="M711.525 358.56c-17.142-15.749-43.1-28.254-81.115-28.254s-63.956 12.505-81.1 28.254c-19.931 18.063-33.837 45.853-33.837 78.731 0 32.422 13.906 60.212 33.837 78.276 17.149 15.747 43.1 28.253 81.1 28.253s63.973-12.505 81.115-28.253c19.932-18.064 33.836-45.854 33.836-78.276 0-32.878-13.904-60.668-33.836-78.731zM630.41 493.8c-32.9 0-56.54-25.937-56.54-56.507 0-31.487 24.1-56.962 56.54-56.962 32.454 0 56.557 25.475 56.557 56.962 0 30.567-23.646 56.507-56.557 56.507z" class="cls-2" transform="translate(1174.639 -268.246)"/>
        <path id="Rectangle_1" d="M0 0H56.55V269.089H0z" class="cls-2" transform="translate(0 .385)"/>
        <path id="Path_4" d="M469.28 412.264v-44.9h34.976v-45.1H447.7v45.1h-34.911v45.22H447.7v178.77h56.55v-179.09z" class="cls-2" transform="translate(484.103 -322.267)"/>
        <path id="Path_5" d="M623.023 336.79v25.938c-7.886-12.042-25.493-32.422-63.045-32.422-62.566 0-100.1 50.022-100.1 106.522 0 58.823 40.319 106.992 101.5 106.992 14.833 0 42.173-3.7 61.647-33.348v30.106c0 17.654-7.146 56.467-50.244 56.467-30.909 0-40.8-11.7-51.8-26.045l-.024.016-41.02 30.075c16.756 24.378 47.394 44.155 93.034 44.155 34.3 0 63.957-12.505 83.9-35.2 23.175-26.856 22.7-55.109 22.7-80.12V336.79zM572.439 493.8c-32.438 0-55.614-25.011-55.614-56.97s23.176-56.5 55.614-56.5 55.62 24.548 55.62 56.5-23.174 56.97-55.62 56.97z" class="cls-2" transform="translate(800.766 -268.246)"/>
        <g id="Group_1" transform="translate(60.013 57.066)">
            <path id="Path_6" d="M428.793 519.737l-42.611 31.14-81.725-111.655 81.084-109.563 41.854 30.77-58.178 78.793z" class="cls-2" transform="translate(-304.457 -329.659)"/>
        </g>
        <path id="Path_7" d="M557.623 442.1c0-21.769-2.8-53.242-24.1-78.74-13.921-16.658-34.578-32.877-73.954-32.877-24.1 0-51.913 5.087-75.544 28.245-14.376 14.358-30.592 38.906-30.592 78.739 0 31.488 9.262 57.433 31.519 78.276 19.923 18.99 44.5 28.246 76.935 28.246 42.836 0 67.534-17.439 82.435-35.2L506.1 480.761l-.023-.015c-11.317 12.583-26.582 18.287-43.57 18.287-22.7 0-34.917-10.151-40.943-18.5-6.489-8.793-9.734-21.761-9.734-33.8h145.8zm-143.936-31.5c4.627-26.857 25.547-40.3 46.4-40.3 23.176 0 41.237 12.968 45.872 40.3z" class="cls-2" transform="translate(84.914 -267.037)"/>
        <path id="Path_8" d="M527.69 442.1c0-21.769-2.8-53.242-24.1-78.74-13.923-16.66-34.59-32.874-73.955-32.874-24.1 0-51.913 5.087-75.544 28.245-14.377 14.359-30.591 38.907-30.591 78.74 0 31.488 9.263 57.433 31.519 78.276 19.924 18.99 44.5 28.246 76.935 28.246 42.836 0 67.534-17.439 82.435-35.2l-38.224-28.03-.023-.015c-11.318 12.583-26.582 18.287-43.57 18.287-22.7 0-34.918-10.151-40.943-18.5-6.49-8.793-9.734-21.761-9.734-33.8h145.8zm-143.935-31.5c4.627-26.857 25.547-40.3 46.4-40.3 23.175 0 41.237 12.968 45.872 40.3z" class="cls-2" transform="translate(-116.392 -267.037)"/>
        <path id="Path_9" d="M633.623 442.1c0-21.769-2.8-53.242-24.1-78.74-13.92-16.658-34.578-32.877-73.953-32.877-24.1 0-51.913 5.087-75.544 28.245-14.377 14.358-30.592 38.906-30.592 78.739 0 31.488 9.262 57.433 31.52 78.276 19.923 18.99 44.5 28.246 76.935 28.246 42.836 0 67.533-17.439 82.435-35.2L582.1 480.761l-.023-.015c-11.317 12.583-26.583 18.287-43.57 18.287-22.7 0-34.918-10.151-40.943-18.5-6.49-8.793-9.734-21.761-9.734-33.8h145.8zm-143.936-31.5c4.627-26.857 25.547-40.3 46.4-40.3 23.175 0 41.236 12.968 45.872 40.3z" class="cls-2" transform="translate(596.025 -267.037)"/>
    </g>
</svg>
